<svg xmlns="http://www.w3.org/2000/svg" width="240" height="52"><g fill="none" fill-rule="evenodd"><path fill="#F2F1F0" d="M55.918 24.14a12.592 12.592 0 0 0-5.407-8.31C51.534 9.58 48.063 3.245 41.918.897A13.63 13.63 0 0 0 37.032 0a13.803 13.803 0 0 0-8.494 2.945A13.786 13.786 0 0 0 18.91.047l.023-.026c-.363.028-.757.09-1.164.169a13.638 13.638 0 0 0-5.908 2.512l-.61.552c-2.689 2.153-4.838 5.45-4.867 10.095-.005.26.007.52.017.782.009.186-.003.36.013.55l.006-.008a.196.196 0 0 1 0 .025C2.513 17.143.013 21.503 0 26.214c0 5.147 2.855 9.72 7.314 12.032a13.534 13.534 0 0 0 2.4 7.68 13.538 13.538 0 0 0 8.75 5.682c.817.152 1.653.23 2.486.23h.024c3.077 0 6.047-1.037 8.438-2.897a13.864 13.864 0 0 0 5.21 1.009c6.959 0 12.738-5.27 13.536-12.028a12.435 12.435 0 0 0 5.64-4.429 12.446 12.446 0 0 0 2.12-9.354"/><path fill="#E41F3F" d="M34.575 38.673c1.295 0 2.345-1.03 2.345-2.314a2.326 2.326 0 0 0-2.335-2.315h-.01a2.325 2.325 0 0 0-2.335 2.315 2.324 2.324 0 0 0 2.335 2.314h.01-.01zM20.984 40.57a2.335 2.335 0 0 0 2.335-2.315 2.324 2.324 0 0 0-2.335-2.314h-.01a2.325 2.325 0 0 0-2.325 2.314 2.324 2.324 0 0 0 2.335 2.315zm-7.22-12.001a2.324 2.324 0 0 0 2.336-2.315 2.324 2.324 0 0 0-2.335-2.314h-.01a2.324 2.324 0 0 0-2.335 2.314 2.324 2.324 0 0 0 2.335 2.315h.01zm29.733 0c1.295 0 2.345-1.03 2.345-2.315a2.325 2.325 0 0 0-2.335-2.314h-.01a2.324 2.324 0 0 0-2.335 2.314 2.324 2.324 0 0 0 2.335 2.315h.01-.01zm-6.373-12.623c1.295 0 2.345-1.04 2.345-2.314a2.326 2.326 0 0 0-2.335-2.315h-.01a2.325 2.325 0 0 0-2.335 2.315 2.324 2.324 0 0 0 2.335 2.314h.01-.01zm-16.997 0c1.295 0 2.345-1.04 2.345-2.314a2.325 2.325 0 0 0-2.335-2.315h-.01a2.325 2.325 0 0 0-2.335 2.315 2.324 2.324 0 0 0 2.335 2.314h.01-.01zm.857 27.57a5.281 5.281 0 0 1-5.312-5.25v-.01a5.281 5.281 0 0 1 5.302-5.262c2.936 0 5.322 2.345 5.322 5.261a5.281 5.281 0 0 1-5.302 5.261h-.01zm4.2-18.73l.031-.03 6.923 6.933a5.322 5.322 0 0 1 7.75 4.67 5.281 5.281 0 0 1-5.303 5.261 5.28 5.28 0 0 1-4.588-7.912l-5.985-5.975h-5.15a5.301 5.301 0 0 1-5.097 3.783 5.28 5.28 0 0 1-5.312-5.251v-.01a5.281 5.281 0 0 1 5.302-5.262 5.302 5.302 0 0 1 5.098 3.793h6.332zm8.26 0h4.955a5.301 5.301 0 0 1 5.098-3.793 5.282 5.282 0 0 1 5.312 5.251v.01a5.281 5.281 0 0 1-5.302 5.262 5.3 5.3 0 0 1-5.108-3.783H32.3l-.04.04-9.544-9.543a5.322 5.322 0 0 1-7.892-4.598c0-.918.235-1.785.653-2.529L11.603 7.23a10.412 10.412 0 0 0-1.784 9.176 10.533 10.533 0 0 0-6.76 9.809c0 4.73 3.16 8.738 7.494 10.063-1.064 5.742 2.728 11.26 8.469 12.323.643.12 1.297.18 1.952.178 3.15 0 5.974-1.356 7.922-3.518a10.738 10.738 0 0 0 5.669 1.631c5.84.03 10.598-4.678 10.628-10.517a10.47 10.47 0 0 0-.024-.78c5.156-.884 8.619-5.781 7.734-10.937a9.472 9.472 0 0 0-5.97-7.253c2.084-5.455-.65-11.566-6.106-13.65a10.584 10.584 0 0 0-3.795-.696A10.633 10.633 0 0 0 28.54 7.27a10.635 10.635 0 0 0-8.493-4.21c-2.386 0-4.589.785-6.363 2.1l3.885 3.854a5.322 5.322 0 0 1 7.667 3.13h6.791a5.301 5.301 0 0 1 5.098-3.783c2.937 0 5.312 2.345 5.312 5.262a5.281 5.281 0 0 1-5.302 5.26 5.302 5.302 0 0 1-5.108-3.792h-6.79a4.683 4.683 0 0 1-.439 1.04l8.646 8.646v.01z"/><path fill="#FFF" d="M236.978 17.623c1.6 0 2.9-1.3 2.9-2.9 0-1.6-1.3-2.8-3-2.8a2.8 2.8 0 0 0-2.898 2.698l-.002.102c0 1.6 1.3 2.8 3 2.8v.1zm2.6 1h-5.2v16.2h5.2v-16.3.1zm-15.1-1c1.5 0 2.3 1 2.3 2.5s-.8 2.5-2.3 2.5h-1.8v-5h1.8zm7.8 2.5c0-4.3-2.6-7-7-7h-8v21.7h5.4v-7.6h2.6c4.2 0 7-2.9 7-7.1zm-23.2-1.6h-5.5l-3 9.4-2.9-9.4h-5.6l6.1 15.7-2.2 6.1h5l8-21.8h.1zm-18.7-.4c-2 0-3.6 1-4.4 2.6v-2.2h-5v16.3h5.2v-7.2c0-2.5.8-4.3 3.3-4.3h.9v-5.2zm-11.5 0c-2 0-3.6 1-4.4 2.6v-2.2h-5v16.3h5.1v-7.2c0-2.5.9-4.3 3.4-4.3h.9v-5.2zm-19.6 4.2c1.7 0 2.7 1.1 2.7 2.4h-5.3c.1-1.1 1-2.4 2.7-2.4h-.1zm8 5.7v-1c0-5.6-2.8-8.9-8-8.9-4.8 0-8.1 3.8-8.1 8.6s3.3 8.5 8.7 8.5a8.002 8.002 0 0 0 7-3.6l-3.4-2.7c-.4.5-1.5 1.8-3.5 1.8s-3.3-1.3-3.5-2.7h10.8zm-29.9 5.5a6.002 6.002 0 0 0 4.4 1.7c4.7 0 8-3.6 8-8.5 0-5-3-8.6-7.7-8.6a5.995 5.995 0 0 0-4.4 1.7v-7.4h-5.2v22.4h4.9v-1.3zm.1-6.9c0-2.5 1.5-4 3.6-4s3.5 1.7 3.5 4c0 2.5-1.4 4-3.5 4-2.3 0-3.6-1.7-3.6-4zm-19.7-8h-4.8v22h5.2v-7a6.002 6.002 0 0 0 4.3 1.6c4.8 0 7.8-3.5 7.8-8.6 0-5-3.3-8.5-8-8.5-2.4 0-4 1.2-4.5 1.7v-1.3.1zm.2 8c0-2.2 1.3-4 3.5-4 2.1 0 3.6 1.6 3.6 4s-1.4 4-3.6 4c-2 0-3.5-1.4-3.5-4zm-13.7 8.6c3.8 0 6.7-2 6.7-5.4 0-5.9-7.5-4.7-7.5-6.7 0-.5.4-.8 1.1-.8a3.998 3.998 0 0 1 2.8 1.2l3.3-2.6a7 7 0 0 0-5.8-2.8c-3.6 0-6.4 1.9-6.4 5 0 6 7.5 5.1 7.5 7 0 .6-.4.9-1.4.9-1.7 0-2.8-.7-3.6-1.4l-3 2.8a7.998 7.998 0 0 0 6.3 2.8zm-17.6-5.7c0-1 1-1.7 2.2-1.7 1.3 0 2.2.6 2.2 1.7s-.9 1.7-2.1 1.7c-1.3 0-2.3-.6-2.3-1.7zm-5.2.2c0 3.6 2.9 5.5 6.1 5.5 1.7 0 2.9-.5 3.7-1.3l.3.9h4.7v-10c0-3.8-1.5-6.7-7.1-6.7-2.7 0-5 .9-6.7 2l2 3.5c1.2-.6 2.6-1 4-1 1.7 0 2.5.7 2.5 1.7v.6c-.5-.2-1.7-.6-3.1-.6-3.9 0-6.4 2.2-6.4 5.4zm-10.8-12.1c1.8 0 2.5 1 2.5 2.3 0 1.5-.9 2.4-2.3 2.4h-1.6v-4.7H70.679zm8 2.2c0-4.4-2.5-6.7-7.7-6.7h-7v21.7h5.3v-8h1.6l3.9 8h5.9l-5-9.3c2-1.1 3-3.4 3-5.7z"/></g></svg>